<?xml version="1.0" standalone="no"?>
<!DOCTYPE svg PUBLIC "-//W3C//DTD SVG 20010904//EN"
 "http://www.w3.org/TR/2001/REC-SVG-20010904/DTD/svg10.dtd">
<svg version="1.0" xmlns="http://www.w3.org/2000/svg"
 width="770.000000pt" height="791.000000pt" viewBox="0 0 770.000000 791.000000"
 preserveAspectRatio="xMidYMid meet">

<g transform="translate(0.000000,791.000000) scale(0.100000,-0.100000)"
fill="#000000" stroke="none">
<path d="M5095 7859 c-16 -6 -88 -10 -160 -10 -79 0 -154 -6 -193 -15 -36 -8
-77 -12 -93 -9 -15 4 -80 -1 -143 -10 -63 -8 -126 -13 -139 -10 -13 4 -62 1
-108 -5 -46 -7 -117 -11 -157 -11 -41 0 -94 -4 -120 -10 -25 -5 -107 -11 -181
-13 -75 -2 -157 -9 -183 -16 -26 -7 -54 -10 -62 -7 -8 3 -63 0 -123 -7 -59 -8
-126 -13 -148 -13 -22 0 -86 -5 -142 -11 -56 -7 -116 -9 -132 -6 -16 4 -51 1
-78 -5 -26 -6 -129 -13 -228 -16 -99 -3 -241 -14 -315 -24 -74 -10 -157 -20
-184 -20 -28 -1 -53 -4 -58 -7 -4 -3 -65 -5 -135 -5 -70 0 -148 -5 -171 -10
-24 -5 -85 -10 -135 -10 -51 0 -126 -5 -167 -10 -41 -6 -105 -12 -141 -14 -36
-2 -104 -9 -150 -14 -46 -6 -100 -10 -119 -10 -19 0 -95 -4 -167 -10 -73 -6
-140 -8 -148 -4 -9 3 -49 1 -88 -6 -40 -6 -90 -12 -112 -14 -143 -11 -309
-107 -404 -234 -44 -59 -95 -147 -102 -178 -2 -5 -12 -39 -23 -75 -25 -78 -24
-11 -25 -2708 -1 -1163 2 -1816 8 -1840 6 -20 18 -68 27 -107 9 -38 23 -86 31
-105 8 -19 19 -44 23 -55 23 -60 81 -171 140 -265 5 -8 21 -35 36 -60 15 -25
46 -70 68 -100 23 -30 59 -81 81 -114 22 -32 50 -72 63 -90 55 -77 76 -107
282 -407 47 -68 96 -137 110 -154 14 -16 34 -43 46 -60 52 -76 109 -156 154
-220 28 -38 73 -104 102 -145 53 -78 127 -177 200 -268 94 -116 286 -242 423
-277 159 -41 233 -41 875 -5 91 5 253 14 360 20 107 5 276 15 375 20 99 6 261
15 360 20 283 14 705 38 875 49 85 6 247 15 360 21 231 12 443 23 830 45 428
24 875 48 1135 60 215 10 300 32 410 107 121 80 199 191 236 336 19 73 19 138
19 2730 l0 2655 -21 71 c-41 137 -113 248 -236 366 -76 73 -237 199 -318 250
-13 8 -51 35 -85 60 -67 49 -187 136 -235 170 -16 12 -71 51 -121 88 -50 37
-133 96 -184 132 -50 36 -108 79 -129 95 -20 17 -65 50 -101 74 -36 25 -96 68
-135 96 -194 144 -407 269 -490 289 -16 4 -48 12 -70 17 -118 31 -412 48 -470
28z m155 -469 c258 -23 335 -55 606 -246 237 -169 416 -294 604 -426 85 -60
156 -113 158 -118 4 -10 -52 -15 -378 -35 -140 -9 -392 -24 -560 -35 -168 -11
-451 -29 -630 -40 -179 -11 -462 -29 -630 -40 -168 -11 -384 -25 -480 -30 -96
-6 -236 -14 -310 -20 -125 -9 -409 -27 -795 -50 -88 -5 -257 -16 -375 -24
-445 -30 -621 -39 -682 -32 -172 18 -327 88 -540 244 -471 345 -468 343 -486
392 -17 46 21 115 80 146 18 9 117 21 285 34 327 25 798 59 973 70 74 5 290
21 480 34 190 14 417 30 505 36 88 6 248 17 355 25 107 8 328 24 490 35 162
11 381 27 485 35 105 8 294 22 420 30 127 9 237 17 245 19 29 7 65 6 180 -4z
m1721 -1407 c108 -50 184 -146 209 -263 8 -41 10 -626 8 -2301 l-3 -2245 -37
-76 c-45 -90 -103 -148 -193 -189 -69 -33 -114 -38 -485 -58 -107 -6 -235 -13
-285 -16 -135 -8 -612 -33 -950 -50 -165 -8 -370 -19 -455 -25 -85 -5 -245
-14 -355 -20 -110 -6 -276 -15 -370 -20 -93 -5 -258 -14 -365 -20 -107 -6
-307 -17 -445 -25 -137 -8 -349 -19 -470 -25 -121 -6 -289 -15 -374 -20 -249
-16 -352 -13 -423 11 -163 54 -293 197 -327 357 -8 38 -11 662 -11 2215 0
2388 -4 2223 63 2336 41 69 106 126 183 163 70 33 98 36 589 63 154 9 395 22
535 30 140 8 383 21 540 30 157 9 395 22 530 30 135 8 286 17 335 20 50 3 164
9 255 15 91 5 251 14 355 20 580 31 761 41 1320 75 369 23 362 22 465 21 84
-1 103 -5 161 -33z m236 -2300 c-3 -10 -5 -2 -5 17 0 19 2 27 5 18 2 -10 2
-26 0 -35z"/>
<path d="M4506 5330 c-35 -290 -149 -655 -287 -919 -267 -511 -663 -822 -1267
-995 -105 -31 -310 -77 -402 -91 -162 -24 -239 -35 -265 -36 -39 -2 22 -12
165 -29 58 -7 113 -14 123 -16 200 -36 312 -60 393 -83 782 -223 1231 -667
1449 -1431 18 -66 43 -168 55 -227 11 -59 26 -133 32 -163 l11 -55 18 106 c55
326 179 667 327 902 143 228 302 390 540 551 337 228 724 359 1307 442 46 7
41 8 -72 20 -541 57 -1038 245 -1357 514 -312 262 -555 673 -674 1135 -27 104
-74 337 -85 415 -1 14 -7 -4 -11 -40z"/>
</g>
</svg>
